<mxfile host="app.diagrams.net" modified="2022-06-22T13:15:25.912Z" agent="5.0 (Windows NT 10.0; Win64; x64) AppleWebKit/537.36 (KHTML, like Gecko) Chrome/102.0.0.0 Safari/537.36" etag="n_NQRbSebWJ9eOEl4RWD" version="20.0.2" type="github">
  <diagram id="qIu4RTvS4aXmTkvlo-zm" name="Page-1">
    <mxGraphModel dx="1038" dy="547" grid="1" gridSize="10" guides="1" tooltips="1" connect="1" arrows="1" fold="1" page="1" pageScale="1" pageWidth="827" pageHeight="1169" math="0" shadow="0">
      <root>
        <mxCell id="0" />
        <mxCell id="1" parent="0" />
        <mxCell id="dp_GVAeV0cUdh480G56G-9" value="" style="edgeStyle=orthogonalEdgeStyle;rounded=0;orthogonalLoop=1;jettySize=auto;html=1;" edge="1" parent="1" source="dp_GVAeV0cUdh480G56G-1" target="dp_GVAeV0cUdh480G56G-8">
          <mxGeometry relative="1" as="geometry" />
        </mxCell>
        <mxCell id="dp_GVAeV0cUdh480G56G-12" value="`Publicação" style="edgeLabel;html=1;align=center;verticalAlign=middle;resizable=0;points=[];" vertex="1" connectable="0" parent="dp_GVAeV0cUdh480G56G-9">
          <mxGeometry x="0.1" y="-1" relative="1" as="geometry">
            <mxPoint as="offset" />
          </mxGeometry>
        </mxCell>
        <mxCell id="dp_GVAeV0cUdh480G56G-2" value="" style="whiteSpace=wrap;html=1;aspect=fixed;fillColor=none;" vertex="1" parent="1">
          <mxGeometry x="90" y="230" width="230" height="230" as="geometry" />
        </mxCell>
        <mxCell id="dp_GVAeV0cUdh480G56G-1" value="GitLab Runner" style="sketch=0;points=[[0,0,0],[0.25,0,0],[0.5,0,0],[0.75,0,0],[1,0,0],[0,1,0],[0.25,1,0],[0.5,1,0],[0.75,1,0],[1,1,0],[0,0.25,0],[0,0.5,0],[0,0.75,0],[1,0.25,0],[1,0.5,0],[1,0.75,0]];outlineConnect=0;fontColor=#232F3E;gradientColor=#F78E04;gradientDirection=north;fillColor=#D05C17;strokeColor=#ffffff;dashed=0;verticalLabelPosition=bottom;verticalAlign=top;align=center;html=1;fontSize=12;fontStyle=0;aspect=fixed;shape=mxgraph.aws4.resourceIcon;resIcon=mxgraph.aws4.app_runner;" vertex="1" parent="1">
          <mxGeometry x="150" y="260" width="78" height="78" as="geometry" />
        </mxCell>
        <mxCell id="dp_GVAeV0cUdh480G56G-4" style="edgeStyle=orthogonalEdgeStyle;rounded=0;orthogonalLoop=1;jettySize=auto;html=1;" edge="1" parent="1" source="dp_GVAeV0cUdh480G56G-3" target="dp_GVAeV0cUdh480G56G-1">
          <mxGeometry relative="1" as="geometry" />
        </mxCell>
        <mxCell id="dp_GVAeV0cUdh480G56G-3" value="Commit no repo" style="verticalLabelPosition=bottom;html=1;verticalAlign=top;align=center;strokeColor=none;fillColor=#00BEF2;shape=mxgraph.azure.git_repository;" vertex="1" parent="1">
          <mxGeometry x="40" y="60" width="50" height="50" as="geometry" />
        </mxCell>
        <mxCell id="dp_GVAeV0cUdh480G56G-7" value="" style="whiteSpace=wrap;html=1;aspect=fixed;fillColor=none;" vertex="1" parent="1">
          <mxGeometry x="560" y="230" width="230" height="230" as="geometry" />
        </mxCell>
        <mxCell id="dp_GVAeV0cUdh480G56G-8" value="Aplicação" style="verticalLabelPosition=bottom;html=1;verticalAlign=top;strokeWidth=1;align=center;outlineConnect=0;dashed=0;outlineConnect=0;shape=mxgraph.aws3d.application;fillColor=#4286c5;strokeColor=#57A2D8;aspect=fixed;" vertex="1" parent="1">
          <mxGeometry x="644" y="264.6" width="62" height="68.8" as="geometry" />
        </mxCell>
        <mxCell id="dp_GVAeV0cUdh480G56G-10" value="Servidor de Ruuners" style="text;html=1;strokeColor=none;fillColor=none;align=center;verticalAlign=middle;whiteSpace=wrap;rounded=0;" vertex="1" parent="1">
          <mxGeometry x="90" y="460" width="120" height="30" as="geometry" />
        </mxCell>
        <mxCell id="dp_GVAeV0cUdh480G56G-11" value="Servidor de Produção" style="text;html=1;strokeColor=none;fillColor=none;align=center;verticalAlign=middle;whiteSpace=wrap;rounded=0;" vertex="1" parent="1">
          <mxGeometry x="560" y="460" width="160" height="30" as="geometry" />
        </mxCell>
      </root>
    </mxGraphModel>
  </diagram>
</mxfile>
